<?xml version="1.0" encoding="UTF-8"?>
<svg width="328px" height="60px" viewBox="0 0 328 60" version="1.1" xmlns="http://www.w3.org/2000/svg" xmlns:xlink="http://www.w3.org/1999/xlink">
    <!-- Generator: Sketch 52.2 (67145) - http://www.bohemiancoding.com/sketch -->
    <title>Untitled 3</title>
    <desc>Created with Sketch.</desc>
    <g id="Page-1" stroke="none" stroke-width="1" fill="none" fill-rule="evenodd">
        <g id="default-monochrome-black" fill="#FFFFFF" fill-rule="nonzero">
            <g id="41eb7413-fd15-4fdc-9d71-bc44aa46c013" transform="translate(0.465873, 0.000002)">
                <path d="M35.4302683,15.7566771 C31.8694373,15.7566771 26.8397635,16.9584575 24.7032649,22.7448079 C23.100891,18.2492588 19.2284873,15.7566771 14.5103862,15.7566771 C10.1928787,15.7566771 6.00890228,17.7596445 4.5400595,21.6320482 L4.5400595,16.3798225 L0.534124647,16.3798225 L0.534124647,45.4896158 L4.5400595,45.4896158 L4.5400595,29.3323452 C4.62908028,22.3887248 9.12462939,19.6290808 13.7982201,19.6290808 C18.4273003,19.6290808 21.7655794,23.0563806 21.7655794,28.7091998 L21.7655794,45.4896158 L25.7270038,45.4896158 L25.7270038,30.4005945 L25.7715142,30.6676568 C25.3264104,23.5459949 29.3323452,19.5845704 34.8071228,19.6290808 C39.6142447,19.6290808 42.9525237,23.100891 42.9525237,28.7091998 L42.9525237,45.4896158 L46.9584586,45.4896158 L46.9584586,28.5311582 C46.9584586,20.5192885 42.4629095,15.7566771 35.4302683,15.7566771 Z M80.9198841,16.3798225 L80.9198841,21.9881313 C78.7388751,18.0712172 74.243326,15.7566771 69.3471834,15.7566771 C61.1572721,15.7566771 54.5697348,22.0771521 54.5697348,30.8902088 C54.5697348,39.7477758 61.2462929,46.1127612 69.3471834,46.1127612 C74.1988156,46.1127612 78.7388751,43.7982211 80.9198841,39.8367966 L80.9198841,45.4896158 L84.9258189,45.4896158 L84.9258189,16.3798225 L80.9198841,16.3798225 Z M69.6587561,42.3293783 C63.5163226,42.3293783 58.5311593,37.3442149 58.5311593,30.8456984 C58.5311593,24.4362026 63.5163226,19.5845704 69.6587561,19.5845704 C75.4451064,19.5845704 80.9198841,23.9910987 80.9198841,31.0237399 C80.9198841,37.7448084 75.6676584,42.3293783 69.6587561,42.3293783 Z M119.243327,16.3798225 L119.243327,21.9881313 C117.062319,18.0712172 112.566769,15.7566771 107.670627,15.7566771 C99.4807155,15.7566771 92.8931782,22.0771521 92.8931782,30.8902088 C92.8931782,39.7477758 99.5697363,46.1127612 107.670627,46.1127612 C112.522259,46.1127612 117.062319,43.7982211 119.243327,39.881307 L119.243327,41.3946602 C119.243327,52.6112778 114.569737,56.2166191 107.448075,56.2166191 C103.976265,56.2166191 100.370923,54.480714 98.2344247,51.0534142 L94.8961457,52.9228505 C97.7448104,57.6409515 102.551932,60.000002 107.448075,60.000002 C116.928787,60.000002 123.249262,55.281901 123.249262,41.1721082 L123.249262,16.3798225 L119.243327,16.3798225 Z M107.9822,42.3293783 C101.839766,42.3293783 96.8546027,37.3442149 96.8546027,30.8456984 C96.8546027,24.4362026 101.839766,19.5845704 107.9822,19.5845704 C113.76855,19.5845704 119.243327,23.9910987 119.243327,31.0237399 C119.243327,37.7448084 113.991102,42.3293783 107.9822,42.3293783 Z M135.178046,8.45697358 C136.958462,8.45697358 138.293773,7.29970351 138.293773,5.65281918 C138.293773,4.00593485 136.958462,2.8041544 135.178046,2.8041544 C133.575672,2.8041544 132.15134,4.00593485 132.15134,5.65281918 C132.15134,7.29970351 133.575672,8.45697358 135.178046,8.45697358 Z M133.219589,45.4896158 L137.181014,45.4896158 L137.181014,16.3798225 L133.219589,16.3798225 L133.219589,45.4896158 Z M160.548967,46.0682508 C164.732943,46.0682508 168.427305,44.5548977 171.008908,42.062316 L168.516326,39.3916927 C166.557869,41.1721082 163.798225,42.2403575 160.682498,42.2403575 C154.317513,42.2403575 149.154308,37.700298 149.154308,30.8902088 C149.154308,24.0356091 154.317513,19.5845704 160.682498,19.5845704 C163.798225,19.5845704 166.557869,20.6973301 168.516326,22.4777456 L171.008908,19.7626119 C168.427305,17.3145406 164.732943,15.7566771 160.548967,15.7566771 C152.270035,15.7566771 145.148373,21.6765586 145.148373,30.8902088 C145.148373,40.1483693 152.270035,46.0682508 160.548967,46.0682508 Z M208.08606,46.0682508 C212.270037,46.0682508 215.964399,44.5548977 218.590512,42.062316 L216.09793,39.3916927 C214.094963,41.1721082 211.335319,42.2403575 208.219592,42.2403575 C201.854606,42.2403575 196.691401,37.700298 196.691401,30.8902088 C196.691401,24.0356091 201.854606,19.5845704 208.219592,19.5845704 C211.335319,19.5845704 214.094963,20.6973301 216.09793,22.4777456 L218.590512,19.7626119 C215.964399,17.3145406 212.270037,15.7566771 208.08606,15.7566771 C199.807128,15.7566771 192.729977,21.6765586 192.729977,30.8902088 C192.729977,40.1483693 199.807128,46.0682508 208.08606,46.0682508 Z M238.264103,46.1127612 C246.543035,46.1127612 253.531166,40.0593485 253.531166,30.8456984 C253.531166,21.6320482 246.543035,15.7566771 238.264103,15.7566771 C229.985171,15.7566771 223.041551,21.6320482 223.041551,30.8456984 C223.041551,40.0593485 229.985171,46.1127612 238.264103,46.1127612 Z M238.264103,42.3293783 C232.077159,42.3293783 227.047485,37.7448084 227.047485,30.8456984 C227.047485,23.9910987 232.077159,19.5845704 238.264103,19.5845704 C244.362026,19.5845704 249.525231,23.9910987 249.525231,30.8456984 C249.525231,37.7448084 244.362026,42.3293783 238.264103,42.3293783 Z M285.801197,0 L285.801197,21.9881313 C283.620188,18.0712172 279.124639,15.7566771 274.228496,15.7566771 C266.038585,15.7566771 259.451047,22.0771521 259.451047,30.8902088 C259.451047,39.7477758 266.127605,46.1127612 274.228496,46.1127612 C279.080128,46.1127612 283.620188,43.7982211 285.801197,39.8367966 L285.801197,45.4896158 L289.807132,45.4896158 L289.807132,0 L285.801197,0 Z M274.540069,42.3293783 C268.442146,42.3293783 263.456982,37.3442149 263.456982,30.8456984 C263.456982,24.4362026 268.442146,19.5845704 274.540069,19.5845704 C280.326419,19.5845704 285.801197,23.9910987 285.801197,31.0237399 C285.801197,37.7448084 280.593481,42.3293783 274.540069,42.3293783 Z M326.928794,30.8456984 C326.928794,21.6320482 320.875382,15.7566771 312.59645,15.7566771 C304.362028,15.7566771 297.774491,21.6320482 297.774491,30.8456984 C297.774491,40.0593485 304.362028,46.1127612 312.59645,46.1127612 C318.071227,46.1127612 323.056391,43.4866484 325.637993,38.8130577 L322.210693,37.3442149 C320.252236,40.5044524 316.735916,42.3293783 312.729981,42.3293783 C306.85461,42.3293783 302.492592,38.8130577 301.824936,32.5816035 L326.884284,32.5816035 C326.928794,32.0474788 326.928794,31.4243334 326.928794,30.8456984 Z M301.869446,29.1543037 C302.626123,22.9228494 306.85461,19.5845704 312.59645,19.5845704 C318.293779,19.5845704 322.433245,23.100891 323.01188,29.1543037 L301.869446,29.1543037 Z" id="Shape"></path>
            </g>
        </g>
    </g>
</svg>